<svg width="1920" height="506" viewBox="0 0 1920 506" fill="none" xmlns="http://www.w3.org/2000/svg">
<path fill-rule="evenodd" clip-rule="evenodd" d="M-119 115.878L-40.1667 76.5954C38.6667 37.3123 196.333 -39.8992 354 25.121C511.667 90.1413 669.333 297.393 827 362.414C984.667 427.434 1142.33 350.222 1300 285.202C1457.67 220.182 1615.33 167.353 1773 194.445C1930.67 220.182 2088.33 324.485 2167.17 375.959L2246 427.434V506H2167.17C2088.33 506 1930.67 506 1773 506C1615.33 506 1457.67 506 1300 506C1142.33 506 984.667 506 827 506C669.333 506 511.667 506 354 506C196.333 506 38.6667 506 -40.1667 506H-119V115.878Z" fill="url(#paint0_linear_1_125)"/>
<defs>
<linearGradient id="paint0_linear_1_125" x1="1063.5" y1="0" x2="1063.5" y2="506" gradientUnits="userSpaceOnUse">
<stop offset="0.302083" stop-color="#CEFDFF"/>
<stop offset="1" stop-color="#2E2E3A"/>
</linearGradient>
</defs>
</svg>
