<svg width="2816" height="1026" viewBox="0 0 2816 1026" fill="none" xmlns="http://www.w3.org/2000/svg">
<path fill-rule="evenodd" clip-rule="evenodd" d="M0 234.963L93.8667 155.31C187.733 75.6571 375.467 -80.9023 563.2 50.9371C750.933 182.777 938.667 603.015 1126.4 734.854C1314.13 866.694 1501.87 710.135 1689.6 578.295C1877.33 446.456 2065.07 339.336 2252.8 394.269C2440.53 446.456 2628.27 657.948 2722.13 762.321L2816 866.694V1026H2722.13C2628.27 1026 2440.53 1026 2252.8 1026C2065.07 1026 1877.33 1026 1689.6 1026C1501.87 1026 1314.13 1026 1126.4 1026C938.667 1026 750.933 1026 563.2 1026C375.467 1026 187.733 1026 93.8667 1026H0V234.963Z" fill="url(#paint0_linear_11_3)"/>
<defs>
<linearGradient id="paint0_linear_11_3" x1="1408" y1="0" x2="1408" y2="1026" gradientUnits="userSpaceOnUse">
<stop offset="0.302083" stop-color="#CEFDFF"/>
<stop offset="1" stop-color="#2E2E3A"/>
</linearGradient>
</defs>
</svg>
