<svg width="1920" height="708" viewBox="0 0 1920 708" fill="none" xmlns="http://www.w3.org/2000/svg">
<g filter="url(#filter0_d_1_33)">
<path d="M1347.41 693C1347.62 676.002 1361.92 662.066 1379.85 661.715C1362.14 662.066 1347.48 649.081 1346.17 632.4H1345.99C1345.45 649.116 1331.51 662.665 1314.06 663.017C1331.73 662.665 1346.35 676.002 1347.3 693H1347.41Z" fill="#C2FFDF"/>
</g>
<g filter="url(#filter1_d_1_33)">
<path d="M57.3486 106.6C57.5663 89.6025 71.8637 75.6666 89.7899 75.3147C72.0814 75.6666 57.4211 62.6809 56.1148 46H55.9333C55.389 62.716 41.4545 76.2648 24 76.6168C41.6722 76.2648 56.2962 89.6025 57.2397 106.6H57.3486Z" fill="#C2FFDF"/>
</g>
<g filter="url(#filter2_d_1_33)">
<path d="M1509.22 666.696C1509.43 649.698 1523.73 635.762 1541.66 635.41C1523.95 635.762 1509.29 622.777 1507.98 606.096H1507.8C1507.26 622.812 1493.32 636.361 1475.87 636.713C1493.54 636.361 1508.16 649.698 1509.11 666.696H1509.22Z" fill="#C2FFDF"/>
</g>
<g filter="url(#filter3_d_1_33)">
<path d="M1347.35 161.6C1347.57 144.602 1361.86 130.667 1379.79 130.315C1362.08 130.667 1347.42 117.681 1346.11 101H1345.93C1345.39 117.716 1331.45 131.265 1314 131.617C1331.67 131.265 1346.3 144.602 1347.24 161.6H1347.35Z" fill="#C2FFDF"/>
</g>
<g filter="url(#filter4_d_1_33)">
<path d="M732.349 458.6C732.566 441.602 746.864 427.667 764.79 427.315C747.081 427.667 732.421 414.681 731.115 398H730.933C730.389 414.716 716.454 428.265 699 428.617C716.672 428.265 731.296 441.602 732.24 458.6H732.349Z" fill="#C2FFDF"/>
</g>
<g filter="url(#filter5_d_1_33)">
<path d="M699.349 230.6C699.566 213.602 713.864 199.667 731.79 199.315C714.081 199.667 699.421 186.681 698.115 170H697.933C697.389 186.716 683.454 200.265 666 200.617C683.672 200.265 698.296 213.602 699.24 230.6H699.349Z" fill="#C2FFDF"/>
</g>
<g filter="url(#filter6_d_1_33)">
<path d="M276.349 83.6001C276.566 66.6025 290.864 52.6666 308.79 52.3147C291.081 52.6666 276.421 39.6809 275.115 23H274.933C274.389 39.716 260.454 53.2648 243 53.6168C260.672 53.2648 275.296 66.6025 276.24 83.6001H276.349Z" fill="#C2FFDF"/>
</g>
<g filter="url(#filter7_d_1_33)">
<path d="M1591.99 650.227C1592.21 633.23 1606.51 619.294 1624.43 618.942C1606.72 619.294 1592.06 606.308 1590.76 589.627H1590.58C1590.03 606.343 1576.1 619.892 1558.64 620.244C1576.31 619.892 1590.94 633.23 1591.88 650.227H1591.99Z" fill="#C2FFDF"/>
</g>
<g filter="url(#filter8_d_1_33)">
<path d="M44.3486 397.6C44.5663 380.602 58.8637 366.667 76.7899 366.315C59.0814 366.667 44.4211 353.681 43.1148 337H42.9333C42.389 353.716 28.4545 367.265 11 367.617C28.6722 367.265 43.2962 380.602 44.2397 397.6H44.3486Z" fill="#C2FFDF"/>
</g>
<g filter="url(#filter9_d_1_33)">
<path d="M1097.35 223.6C1097.57 206.602 1111.86 192.667 1129.79 192.315C1112.08 192.667 1097.42 179.681 1096.11 163H1095.93C1095.39 179.716 1081.45 193.265 1064 193.617C1081.67 193.265 1096.3 206.602 1097.24 223.6H1097.35Z" fill="#C2FFDF"/>
</g>
<g filter="url(#filter10_d_1_33)">
<path d="M915.349 157.6C915.566 140.602 929.864 126.667 947.79 126.315C930.081 126.667 915.421 113.681 914.115 97H913.933C913.389 113.716 899.454 127.265 882 127.617C899.672 127.265 914.296 140.602 915.24 157.6H915.349Z" fill="#C2FFDF"/>
</g>
<g filter="url(#filter11_d_1_33)">
<path d="M147.349 231.6C147.566 214.602 161.864 200.667 179.79 200.315C162.081 200.667 147.421 187.681 146.115 171H145.933C145.389 187.716 131.454 201.265 114 201.617C131.672 201.265 146.296 214.602 147.24 231.6H147.349Z" fill="#C2FFDF"/>
</g>
<g filter="url(#filter12_d_1_33)">
<path d="M947.349 464.6C947.566 447.602 961.864 433.667 979.79 433.315C962.081 433.667 947.421 420.681 946.115 404H945.933C945.389 420.716 931.454 434.265 914 434.617C931.672 434.265 946.296 447.602 947.24 464.6H947.349Z" fill="#C2FFDF"/>
</g>
<g filter="url(#filter13_d_1_33)">
<path d="M1829.35 188.6C1829.57 171.602 1843.86 157.667 1861.79 157.315C1844.08 157.667 1829.42 144.681 1828.11 128H1827.93C1827.39 144.716 1813.45 158.265 1796 158.617C1813.67 158.265 1828.3 171.602 1829.24 188.6H1829.35Z" fill="#C2FFDF"/>
</g>
<g filter="url(#filter14_d_1_33)">
<path d="M404.349 553.6C404.566 536.602 418.864 522.667 436.79 522.315C419.081 522.667 404.421 509.681 403.115 493H402.933C402.389 509.716 388.454 523.265 371 523.617C388.672 523.265 403.296 536.602 404.24 553.6H404.349Z" fill="#C2FFDF"/>
</g>
<g filter="url(#filter15_d_1_33)">
<path d="M200.695 492.543C200.913 475.545 215.211 461.609 233.137 461.258C215.428 461.609 200.768 448.624 199.462 431.943H199.28C198.736 448.659 184.801 462.208 167.347 462.56C185.019 462.208 199.643 475.545 200.586 492.543H200.695Z" fill="#C2FFDF"/>
</g>
<g filter="url(#filter16_d_1_33)">
<path d="M235.82 362.6C236.038 345.602 250.336 331.667 268.262 331.315C250.553 331.667 235.893 318.681 234.587 302H234.405C233.861 318.716 219.926 332.265 202.472 332.617C220.144 332.265 234.768 345.602 235.711 362.6H235.82Z" fill="#C2FFDF"/>
</g>
<g filter="url(#filter17_d_1_33)">
<path d="M741.349 83.6001C741.566 66.6025 755.864 52.6666 773.79 52.3147C756.081 52.6666 741.421 39.6809 740.115 23H739.933C739.389 39.716 725.454 53.2648 708 53.6168C725.672 53.2648 740.296 66.6025 741.24 83.6001H741.349Z" fill="#C2FFDF"/>
</g>
<g filter="url(#filter18_d_1_33)">
<path d="M1200.35 112.6C1200.57 95.6025 1214.86 81.6666 1232.79 81.3147C1215.08 81.6666 1200.42 68.6809 1199.11 52H1198.93C1198.39 68.716 1184.45 82.2648 1167 82.6168C1184.67 82.2648 1199.3 95.6025 1200.24 112.6H1200.35Z" fill="#C2FFDF"/>
</g>
<g filter="url(#filter19_d_1_33)">
<path d="M384.349 235.6C384.566 218.602 398.864 204.667 416.79 204.315C399.081 204.667 384.421 191.681 383.115 175H382.933C382.389 191.716 368.454 205.265 351 205.617C368.672 205.265 383.296 218.602 384.24 235.6H384.349Z" fill="#C2FFDF"/>
</g>
<g filter="url(#filter20_d_1_33)">
<path d="M1592.35 162.6C1592.57 145.602 1606.86 131.667 1624.79 131.315C1607.08 131.667 1592.42 118.681 1591.11 102H1590.93C1590.39 118.716 1576.45 132.265 1559 132.617C1576.67 132.265 1591.3 145.602 1592.24 162.6H1592.35Z" fill="#C2FFDF"/>
</g>
<g filter="url(#filter21_d_1_33)">
<path d="M505.349 157.6C505.566 140.602 519.864 126.667 537.79 126.315C520.081 126.667 505.421 113.681 504.115 97H503.933C503.389 113.716 489.454 127.265 472 127.617C489.672 127.265 504.296 140.602 505.24 157.6H505.349Z" fill="#C2FFDF"/>
</g>
<g filter="url(#filter22_d_1_33)">
<path d="M1784.35 437.6C1784.57 420.602 1798.86 406.667 1816.79 406.315C1799.08 406.667 1784.42 393.681 1783.11 377H1782.93C1782.39 393.716 1768.45 407.265 1751 407.617C1768.67 407.265 1783.3 420.602 1784.24 437.6H1784.35Z" fill="#C2FFDF"/>
</g>
<g filter="url(#filter23_d_1_33)">
<path d="M1634.35 527.6C1634.57 510.602 1648.86 496.667 1666.79 496.315C1649.08 496.667 1634.42 483.681 1633.11 467H1632.93C1632.39 483.716 1618.45 497.265 1601 497.617C1618.67 497.265 1633.3 510.602 1634.24 527.6H1634.35Z" fill="#C2FFDF"/>
</g>
<g filter="url(#filter24_d_1_33)">
<path d="M1123.35 492.32C1123.57 475.323 1137.86 461.387 1155.79 461.035C1138.08 461.387 1123.42 448.401 1122.11 431.72H1121.93C1121.39 448.436 1107.45 461.985 1090 462.337C1107.67 461.985 1122.3 475.323 1123.24 492.32H1123.35Z" fill="#C2FFDF"/>
</g>
<g filter="url(#filter25_d_1_33)">
<path d="M1266.35 584.6C1266.57 567.602 1280.86 553.667 1298.79 553.315C1281.08 553.667 1266.42 540.681 1265.11 524H1264.93C1264.39 540.716 1250.45 554.265 1233 554.617C1250.67 554.265 1265.3 567.602 1266.24 584.6H1266.35Z" fill="#C2FFDF"/>
</g>
<g filter="url(#filter26_d_1_33)">
<path d="M1443.35 498.6C1443.57 481.602 1457.86 467.667 1475.79 467.315C1458.08 467.667 1443.42 454.681 1442.11 438H1441.93C1441.39 454.716 1427.45 468.265 1410 468.617C1427.67 468.265 1442.3 481.602 1443.24 498.6H1443.35Z" fill="#C2FFDF"/>
</g>
<g filter="url(#filter27_d_1_33)">
<path d="M1707.35 284.6C1707.57 267.602 1721.86 253.667 1739.79 253.315C1722.08 253.667 1707.42 240.681 1706.11 224H1705.93C1705.39 240.716 1691.45 254.265 1674 254.617C1691.67 254.265 1706.3 267.602 1707.24 284.6H1707.35Z" fill="#C2FFDF"/>
</g>
<g filter="url(#filter28_d_1_33)">
<path d="M488.349 458.6C488.566 441.602 502.864 427.667 520.79 427.315C503.081 427.667 488.421 414.681 487.115 398H486.933C486.389 414.716 472.454 428.265 455 428.617C472.672 428.265 487.296 441.602 488.24 458.6H488.349Z" fill="#C2FFDF"/>
</g>
<defs>
<filter id="filter0_d_1_33" x="1299.06" y="617.4" width="96.2612" height="90.6" filterUnits="userSpaceOnUse" color-interpolation-filters="sRGB">
<feFlood flood-opacity="0" result="BackgroundImageFix"/>
<feColorMatrix in="SourceAlpha" type="matrix" values="0 0 0 0 0 0 0 0 0 0 0 0 0 0 0 0 0 0 127 0" result="hardAlpha"/>
<feOffset/>
<feGaussianBlur stdDeviation="7.5"/>
<feComposite in2="hardAlpha" operator="out"/>
<feColorMatrix type="matrix" values="0 0 0 0 1 0 0 0 0 0.898039 0 0 0 0 0.709804 0 0 0 1 0"/>
<feBlend mode="normal" in2="BackgroundImageFix" result="effect1_dropShadow_1_33"/>
<feBlend mode="normal" in="SourceGraphic" in2="effect1_dropShadow_1_33" result="shape"/>
</filter>
<filter id="filter1_d_1_33" x="9" y="31" width="96.2613" height="90.6001" filterUnits="userSpaceOnUse" color-interpolation-filters="sRGB">
<feFlood flood-opacity="0" result="BackgroundImageFix"/>
<feColorMatrix in="SourceAlpha" type="matrix" values="0 0 0 0 0 0 0 0 0 0 0 0 0 0 0 0 0 0 127 0" result="hardAlpha"/>
<feOffset/>
<feGaussianBlur stdDeviation="7.5"/>
<feComposite in2="hardAlpha" operator="out"/>
<feColorMatrix type="matrix" values="0 0 0 0 1 0 0 0 0 0.898039 0 0 0 0 0.709804 0 0 0 1 0"/>
<feBlend mode="normal" in2="BackgroundImageFix" result="effect1_dropShadow_1_33"/>
<feBlend mode="normal" in="SourceGraphic" in2="effect1_dropShadow_1_33" result="shape"/>
</filter>
<filter id="filter2_d_1_33" x="1460.87" y="591.096" width="96.2612" height="90.6" filterUnits="userSpaceOnUse" color-interpolation-filters="sRGB">
<feFlood flood-opacity="0" result="BackgroundImageFix"/>
<feColorMatrix in="SourceAlpha" type="matrix" values="0 0 0 0 0 0 0 0 0 0 0 0 0 0 0 0 0 0 127 0" result="hardAlpha"/>
<feOffset/>
<feGaussianBlur stdDeviation="7.5"/>
<feComposite in2="hardAlpha" operator="out"/>
<feColorMatrix type="matrix" values="0 0 0 0 1 0 0 0 0 0.898039 0 0 0 0 0.709804 0 0 0 1 0"/>
<feBlend mode="normal" in2="BackgroundImageFix" result="effect1_dropShadow_1_33"/>
<feBlend mode="normal" in="SourceGraphic" in2="effect1_dropShadow_1_33" result="shape"/>
</filter>
<filter id="filter3_d_1_33" x="965.79" y="86" width="429" height="481.28" filterUnits="userSpaceOnUse" color-interpolation-filters="sRGB">
<feFlood flood-opacity="0" result="BackgroundImageFix"/>
<feColorMatrix in="SourceAlpha" type="matrix" values="0 0 0 0 0 0 0 0 0 0 0 0 0 0 0 0 0 0 127 0" result="hardAlpha"/>
<feOffset/>
<feGaussianBlur stdDeviation="7.5"/>
<feComposite in2="hardAlpha" operator="out"/>
<feColorMatrix type="matrix" values="0 0 0 0 1 0 0 0 0 0.898039 0 0 0 0 0.709804 0 0 0 1 0"/>
<feBlend mode="normal" in2="BackgroundImageFix" result="effect1_dropShadow_1_33"/>
<feBlend mode="normal" in="SourceGraphic" in2="effect1_dropShadow_1_33" result="shape"/>
</filter>
<filter id="filter4_d_1_33" x="684" y="383" width="96.2611" height="90.6001" filterUnits="userSpaceOnUse" color-interpolation-filters="sRGB">
<feFlood flood-opacity="0" result="BackgroundImageFix"/>
<feColorMatrix in="SourceAlpha" type="matrix" values="0 0 0 0 0 0 0 0 0 0 0 0 0 0 0 0 0 0 127 0" result="hardAlpha"/>
<feOffset/>
<feGaussianBlur stdDeviation="7.5"/>
<feComposite in2="hardAlpha" operator="out"/>
<feColorMatrix type="matrix" values="0 0 0 0 1 0 0 0 0 0.898039 0 0 0 0 0.709804 0 0 0 1 0"/>
<feBlend mode="normal" in2="BackgroundImageFix" result="effect1_dropShadow_1_33"/>
<feBlend mode="normal" in="SourceGraphic" in2="effect1_dropShadow_1_33" result="shape"/>
</filter>
<filter id="filter5_d_1_33" x="651" y="155" width="96.2611" height="90.6001" filterUnits="userSpaceOnUse" color-interpolation-filters="sRGB">
<feFlood flood-opacity="0" result="BackgroundImageFix"/>
<feColorMatrix in="SourceAlpha" type="matrix" values="0 0 0 0 0 0 0 0 0 0 0 0 0 0 0 0 0 0 127 0" result="hardAlpha"/>
<feOffset/>
<feGaussianBlur stdDeviation="7.5"/>
<feComposite in2="hardAlpha" operator="out"/>
<feColorMatrix type="matrix" values="0 0 0 0 1 0 0 0 0 0.898039 0 0 0 0 0.709804 0 0 0 1 0"/>
<feBlend mode="normal" in2="BackgroundImageFix" result="effect1_dropShadow_1_33"/>
<feBlend mode="normal" in="SourceGraphic" in2="effect1_dropShadow_1_33" result="shape"/>
</filter>
<filter id="filter6_d_1_33" x="228" y="8" width="150.5" height="182.28" filterUnits="userSpaceOnUse" color-interpolation-filters="sRGB">
<feFlood flood-opacity="0" result="BackgroundImageFix"/>
<feColorMatrix in="SourceAlpha" type="matrix" values="0 0 0 0 0 0 0 0 0 0 0 0 0 0 0 0 0 0 127 0" result="hardAlpha"/>
<feOffset/>
<feGaussianBlur stdDeviation="7.5"/>
<feComposite in2="hardAlpha" operator="out"/>
<feColorMatrix type="matrix" values="0 0 0 0 1 0 0 0 0 0.898039 0 0 0 0 0.709804 0 0 0 1 0"/>
<feBlend mode="normal" in2="BackgroundImageFix" result="effect1_dropShadow_1_33"/>
<feBlend mode="normal" in="SourceGraphic" in2="effect1_dropShadow_1_33" result="shape"/>
</filter>
<filter id="filter7_d_1_33" x="1543.64" y="574.627" width="96.2612" height="90.6" filterUnits="userSpaceOnUse" color-interpolation-filters="sRGB">
<feFlood flood-opacity="0" result="BackgroundImageFix"/>
<feColorMatrix in="SourceAlpha" type="matrix" values="0 0 0 0 0 0 0 0 0 0 0 0 0 0 0 0 0 0 127 0" result="hardAlpha"/>
<feOffset/>
<feGaussianBlur stdDeviation="7.5"/>
<feComposite in2="hardAlpha" operator="out"/>
<feColorMatrix type="matrix" values="0 0 0 0 1 0 0 0 0 0.898039 0 0 0 0 0.709804 0 0 0 1 0"/>
<feBlend mode="normal" in2="BackgroundImageFix" result="effect1_dropShadow_1_33"/>
<feBlend mode="normal" in="SourceGraphic" in2="effect1_dropShadow_1_33" result="shape"/>
</filter>
<filter id="filter8_d_1_33" x="-4" y="322" width="95.8235" height="96.8096" filterUnits="userSpaceOnUse" color-interpolation-filters="sRGB">
<feFlood flood-opacity="0" result="BackgroundImageFix"/>
<feColorMatrix in="SourceAlpha" type="matrix" values="0 0 0 0 0 0 0 0 0 0 0 0 0 0 0 0 0 0 127 0" result="hardAlpha"/>
<feOffset/>
<feGaussianBlur stdDeviation="7.5"/>
<feComposite in2="hardAlpha" operator="out"/>
<feColorMatrix type="matrix" values="0 0 0 0 1 0 0 0 0 0.898039 0 0 0 0 0.709804 0 0 0 1 0"/>
<feBlend mode="normal" in2="BackgroundImageFix" result="effect1_dropShadow_1_33"/>
<feBlend mode="normal" in="SourceGraphic" in2="effect1_dropShadow_1_33" result="shape"/>
</filter>
<filter id="filter9_d_1_33" x="1049" y="148" width="96.2612" height="90.6001" filterUnits="userSpaceOnUse" color-interpolation-filters="sRGB">
<feFlood flood-opacity="0" result="BackgroundImageFix"/>
<feColorMatrix in="SourceAlpha" type="matrix" values="0 0 0 0 0 0 0 0 0 0 0 0 0 0 0 0 0 0 127 0" result="hardAlpha"/>
<feOffset/>
<feGaussianBlur stdDeviation="7.5"/>
<feComposite in2="hardAlpha" operator="out"/>
<feColorMatrix type="matrix" values="0 0 0 0 1 0 0 0 0 0.898039 0 0 0 0 0.709804 0 0 0 1 0"/>
<feBlend mode="normal" in2="BackgroundImageFix" result="effect1_dropShadow_1_33"/>
<feBlend mode="normal" in="SourceGraphic" in2="effect1_dropShadow_1_33" result="shape"/>
</filter>
<filter id="filter10_d_1_33" x="867" y="82" width="96.2612" height="90.6001" filterUnits="userSpaceOnUse" color-interpolation-filters="sRGB">
<feFlood flood-opacity="0" result="BackgroundImageFix"/>
<feColorMatrix in="SourceAlpha" type="matrix" values="0 0 0 0 0 0 0 0 0 0 0 0 0 0 0 0 0 0 127 0" result="hardAlpha"/>
<feOffset/>
<feGaussianBlur stdDeviation="7.5"/>
<feComposite in2="hardAlpha" operator="out"/>
<feColorMatrix type="matrix" values="0 0 0 0 1 0 0 0 0 0.898039 0 0 0 0 0.709804 0 0 0 1 0"/>
<feBlend mode="normal" in2="BackgroundImageFix" result="effect1_dropShadow_1_33"/>
<feBlend mode="normal" in="SourceGraphic" in2="effect1_dropShadow_1_33" result="shape"/>
</filter>
<filter id="filter11_d_1_33" x="99" y="156" width="96.2613" height="90.6001" filterUnits="userSpaceOnUse" color-interpolation-filters="sRGB">
<feFlood flood-opacity="0" result="BackgroundImageFix"/>
<feColorMatrix in="SourceAlpha" type="matrix" values="0 0 0 0 0 0 0 0 0 0 0 0 0 0 0 0 0 0 127 0" result="hardAlpha"/>
<feOffset/>
<feGaussianBlur stdDeviation="7.5"/>
<feComposite in2="hardAlpha" operator="out"/>
<feColorMatrix type="matrix" values="0 0 0 0 1 0 0 0 0 0.898039 0 0 0 0 0.709804 0 0 0 1 0"/>
<feBlend mode="normal" in2="BackgroundImageFix" result="effect1_dropShadow_1_33"/>
<feBlend mode="normal" in="SourceGraphic" in2="effect1_dropShadow_1_33" result="shape"/>
</filter>
<filter id="filter12_d_1_33" x="899" y="389" width="96.2614" height="90.6001" filterUnits="userSpaceOnUse" color-interpolation-filters="sRGB">
<feFlood flood-opacity="0" result="BackgroundImageFix"/>
<feColorMatrix in="SourceAlpha" type="matrix" values="0 0 0 0 0 0 0 0 0 0 0 0 0 0 0 0 0 0 127 0" result="hardAlpha"/>
<feOffset/>
<feGaussianBlur stdDeviation="7.5"/>
<feComposite in2="hardAlpha" operator="out"/>
<feColorMatrix type="matrix" values="0 0 0 0 1 0 0 0 0 0.898039 0 0 0 0 0.709804 0 0 0 1 0"/>
<feBlend mode="normal" in2="BackgroundImageFix" result="effect1_dropShadow_1_33"/>
<feBlend mode="normal" in="SourceGraphic" in2="effect1_dropShadow_1_33" result="shape"/>
</filter>
<filter id="filter13_d_1_33" x="1781" y="113" width="96.2612" height="90.6001" filterUnits="userSpaceOnUse" color-interpolation-filters="sRGB">
<feFlood flood-opacity="0" result="BackgroundImageFix"/>
<feColorMatrix in="SourceAlpha" type="matrix" values="0 0 0 0 0 0 0 0 0 0 0 0 0 0 0 0 0 0 127 0" result="hardAlpha"/>
<feOffset/>
<feGaussianBlur stdDeviation="7.5"/>
<feComposite in2="hardAlpha" operator="out"/>
<feColorMatrix type="matrix" values="0 0 0 0 1 0 0 0 0 0.898039 0 0 0 0 0.709804 0 0 0 1 0"/>
<feBlend mode="normal" in2="BackgroundImageFix" result="effect1_dropShadow_1_33"/>
<feBlend mode="normal" in="SourceGraphic" in2="effect1_dropShadow_1_33" result="shape"/>
</filter>
<filter id="filter14_d_1_33" x="356" y="478" width="96.2613" height="90.6" filterUnits="userSpaceOnUse" color-interpolation-filters="sRGB">
<feFlood flood-opacity="0" result="BackgroundImageFix"/>
<feColorMatrix in="SourceAlpha" type="matrix" values="0 0 0 0 0 0 0 0 0 0 0 0 0 0 0 0 0 0 127 0" result="hardAlpha"/>
<feOffset/>
<feGaussianBlur stdDeviation="7.5"/>
<feComposite in2="hardAlpha" operator="out"/>
<feColorMatrix type="matrix" values="0 0 0 0 1 0 0 0 0 0.898039 0 0 0 0 0.709804 0 0 0 1 0"/>
<feBlend mode="normal" in2="BackgroundImageFix" result="effect1_dropShadow_1_33"/>
<feBlend mode="normal" in="SourceGraphic" in2="effect1_dropShadow_1_33" result="shape"/>
</filter>
<filter id="filter15_d_1_33" x="152.347" y="416.943" width="96.2613" height="90.6001" filterUnits="userSpaceOnUse" color-interpolation-filters="sRGB">
<feFlood flood-opacity="0" result="BackgroundImageFix"/>
<feColorMatrix in="SourceAlpha" type="matrix" values="0 0 0 0 0 0 0 0 0 0 0 0 0 0 0 0 0 0 127 0" result="hardAlpha"/>
<feOffset/>
<feGaussianBlur stdDeviation="7.5"/>
<feComposite in2="hardAlpha" operator="out"/>
<feColorMatrix type="matrix" values="0 0 0 0 1 0 0 0 0 0.898039 0 0 0 0 0.709804 0 0 0 1 0"/>
<feBlend mode="normal" in2="BackgroundImageFix" result="effect1_dropShadow_1_33"/>
<feBlend mode="normal" in="SourceGraphic" in2="effect1_dropShadow_1_33" result="shape"/>
</filter>
<filter id="filter16_d_1_33" x="138" y="287" width="145.262" height="90.6001" filterUnits="userSpaceOnUse" color-interpolation-filters="sRGB">
<feFlood flood-opacity="0" result="BackgroundImageFix"/>
<feColorMatrix in="SourceAlpha" type="matrix" values="0 0 0 0 0 0 0 0 0 0 0 0 0 0 0 0 0 0 127 0" result="hardAlpha"/>
<feOffset/>
<feGaussianBlur stdDeviation="7.5"/>
<feComposite in2="hardAlpha" operator="out"/>
<feColorMatrix type="matrix" values="0 0 0 0 1 0 0 0 0 0.898039 0 0 0 0 0.709804 0 0 0 1 0"/>
<feBlend mode="normal" in2="BackgroundImageFix" result="effect1_dropShadow_1_33"/>
<feBlend mode="normal" in="SourceGraphic" in2="effect1_dropShadow_1_33" result="shape"/>
</filter>
<filter id="filter17_d_1_33" x="693" y="8" width="96.2612" height="90.6001" filterUnits="userSpaceOnUse" color-interpolation-filters="sRGB">
<feFlood flood-opacity="0" result="BackgroundImageFix"/>
<feColorMatrix in="SourceAlpha" type="matrix" values="0 0 0 0 0 0 0 0 0 0 0 0 0 0 0 0 0 0 127 0" result="hardAlpha"/>
<feOffset/>
<feGaussianBlur stdDeviation="7.5"/>
<feComposite in2="hardAlpha" operator="out"/>
<feColorMatrix type="matrix" values="0 0 0 0 1 0 0 0 0 0.898039 0 0 0 0 0.709804 0 0 0 1 0"/>
<feBlend mode="normal" in2="BackgroundImageFix" result="effect1_dropShadow_1_33"/>
<feBlend mode="normal" in="SourceGraphic" in2="effect1_dropShadow_1_33" result="shape"/>
</filter>
<filter id="filter18_d_1_33" x="1152" y="37" width="96.2612" height="90.6001" filterUnits="userSpaceOnUse" color-interpolation-filters="sRGB">
<feFlood flood-opacity="0" result="BackgroundImageFix"/>
<feColorMatrix in="SourceAlpha" type="matrix" values="0 0 0 0 0 0 0 0 0 0 0 0 0 0 0 0 0 0 127 0" result="hardAlpha"/>
<feOffset/>
<feGaussianBlur stdDeviation="7.5"/>
<feComposite in2="hardAlpha" operator="out"/>
<feColorMatrix type="matrix" values="0 0 0 0 1 0 0 0 0 0.898039 0 0 0 0 0.709804 0 0 0 1 0"/>
<feBlend mode="normal" in2="BackgroundImageFix" result="effect1_dropShadow_1_33"/>
<feBlend mode="normal" in="SourceGraphic" in2="effect1_dropShadow_1_33" result="shape"/>
</filter>
<filter id="filter19_d_1_33" x="336" y="160" width="96.2613" height="90.6001" filterUnits="userSpaceOnUse" color-interpolation-filters="sRGB">
<feFlood flood-opacity="0" result="BackgroundImageFix"/>
<feColorMatrix in="SourceAlpha" type="matrix" values="0 0 0 0 0 0 0 0 0 0 0 0 0 0 0 0 0 0 127 0" result="hardAlpha"/>
<feOffset/>
<feGaussianBlur stdDeviation="7.5"/>
<feComposite in2="hardAlpha" operator="out"/>
<feColorMatrix type="matrix" values="0 0 0 0 1 0 0 0 0 0.898039 0 0 0 0 0.709804 0 0 0 1 0"/>
<feBlend mode="normal" in2="BackgroundImageFix" result="effect1_dropShadow_1_33"/>
<feBlend mode="normal" in="SourceGraphic" in2="effect1_dropShadow_1_33" result="shape"/>
</filter>
<filter id="filter20_d_1_33" x="1544" y="87" width="96.2612" height="90.6001" filterUnits="userSpaceOnUse" color-interpolation-filters="sRGB">
<feFlood flood-opacity="0" result="BackgroundImageFix"/>
<feColorMatrix in="SourceAlpha" type="matrix" values="0 0 0 0 0 0 0 0 0 0 0 0 0 0 0 0 0 0 127 0" result="hardAlpha"/>
<feOffset/>
<feGaussianBlur stdDeviation="7.5"/>
<feComposite in2="hardAlpha" operator="out"/>
<feColorMatrix type="matrix" values="0 0 0 0 1 0 0 0 0 0.898039 0 0 0 0 0.709804 0 0 0 1 0"/>
<feBlend mode="normal" in2="BackgroundImageFix" result="effect1_dropShadow_1_33"/>
<feBlend mode="normal" in="SourceGraphic" in2="effect1_dropShadow_1_33" result="shape"/>
</filter>
<filter id="filter21_d_1_33" x="457" y="82" width="96.2612" height="90.6001" filterUnits="userSpaceOnUse" color-interpolation-filters="sRGB">
<feFlood flood-opacity="0" result="BackgroundImageFix"/>
<feColorMatrix in="SourceAlpha" type="matrix" values="0 0 0 0 0 0 0 0 0 0 0 0 0 0 0 0 0 0 127 0" result="hardAlpha"/>
<feOffset/>
<feGaussianBlur stdDeviation="7.5"/>
<feComposite in2="hardAlpha" operator="out"/>
<feColorMatrix type="matrix" values="0 0 0 0 1 0 0 0 0 0.898039 0 0 0 0 0.709804 0 0 0 1 0"/>
<feBlend mode="normal" in2="BackgroundImageFix" result="effect1_dropShadow_1_33"/>
<feBlend mode="normal" in="SourceGraphic" in2="effect1_dropShadow_1_33" result="shape"/>
</filter>
<filter id="filter22_d_1_33" x="1736" y="362" width="96.2612" height="90.6001" filterUnits="userSpaceOnUse" color-interpolation-filters="sRGB">
<feFlood flood-opacity="0" result="BackgroundImageFix"/>
<feColorMatrix in="SourceAlpha" type="matrix" values="0 0 0 0 0 0 0 0 0 0 0 0 0 0 0 0 0 0 127 0" result="hardAlpha"/>
<feOffset/>
<feGaussianBlur stdDeviation="7.5"/>
<feComposite in2="hardAlpha" operator="out"/>
<feColorMatrix type="matrix" values="0 0 0 0 1 0 0 0 0 0.898039 0 0 0 0 0.709804 0 0 0 1 0"/>
<feBlend mode="normal" in2="BackgroundImageFix" result="effect1_dropShadow_1_33"/>
<feBlend mode="normal" in="SourceGraphic" in2="effect1_dropShadow_1_33" result="shape"/>
</filter>
<filter id="filter23_d_1_33" x="1586" y="452" width="96.2612" height="90.6" filterUnits="userSpaceOnUse" color-interpolation-filters="sRGB">
<feFlood flood-opacity="0" result="BackgroundImageFix"/>
<feColorMatrix in="SourceAlpha" type="matrix" values="0 0 0 0 0 0 0 0 0 0 0 0 0 0 0 0 0 0 127 0" result="hardAlpha"/>
<feOffset/>
<feGaussianBlur stdDeviation="7.5"/>
<feComposite in2="hardAlpha" operator="out"/>
<feColorMatrix type="matrix" values="0 0 0 0 1 0 0 0 0 0.898039 0 0 0 0 0.709804 0 0 0 1 0"/>
<feBlend mode="normal" in2="BackgroundImageFix" result="effect1_dropShadow_1_33"/>
<feBlend mode="normal" in="SourceGraphic" in2="effect1_dropShadow_1_33" result="shape"/>
</filter>
<filter id="filter24_d_1_33" x="1075" y="380" width="95.7899" height="127.32" filterUnits="userSpaceOnUse" color-interpolation-filters="sRGB">
<feFlood flood-opacity="0" result="BackgroundImageFix"/>
<feColorMatrix in="SourceAlpha" type="matrix" values="0 0 0 0 0 0 0 0 0 0 0 0 0 0 0 0 0 0 127 0" result="hardAlpha"/>
<feOffset/>
<feGaussianBlur stdDeviation="7.5"/>
<feComposite in2="hardAlpha" operator="out"/>
<feColorMatrix type="matrix" values="0 0 0 0 1 0 0 0 0 0.898039 0 0 0 0 0.709804 0 0 0 1 0"/>
<feBlend mode="normal" in2="BackgroundImageFix" result="effect1_dropShadow_1_33"/>
<feBlend mode="normal" in="SourceGraphic" in2="effect1_dropShadow_1_33" result="shape"/>
</filter>
<filter id="filter25_d_1_33" x="1218" y="509" width="96.2612" height="90.6" filterUnits="userSpaceOnUse" color-interpolation-filters="sRGB">
<feFlood flood-opacity="0" result="BackgroundImageFix"/>
<feColorMatrix in="SourceAlpha" type="matrix" values="0 0 0 0 0 0 0 0 0 0 0 0 0 0 0 0 0 0 127 0" result="hardAlpha"/>
<feOffset/>
<feGaussianBlur stdDeviation="7.5"/>
<feComposite in2="hardAlpha" operator="out"/>
<feColorMatrix type="matrix" values="0 0 0 0 1 0 0 0 0 0.898039 0 0 0 0 0.709804 0 0 0 1 0"/>
<feBlend mode="normal" in2="BackgroundImageFix" result="effect1_dropShadow_1_33"/>
<feBlend mode="normal" in="SourceGraphic" in2="effect1_dropShadow_1_33" result="shape"/>
</filter>
<filter id="filter26_d_1_33" x="1395" y="423" width="96.2612" height="90.6001" filterUnits="userSpaceOnUse" color-interpolation-filters="sRGB">
<feFlood flood-opacity="0" result="BackgroundImageFix"/>
<feColorMatrix in="SourceAlpha" type="matrix" values="0 0 0 0 0 0 0 0 0 0 0 0 0 0 0 0 0 0 127 0" result="hardAlpha"/>
<feOffset/>
<feGaussianBlur stdDeviation="7.5"/>
<feComposite in2="hardAlpha" operator="out"/>
<feColorMatrix type="matrix" values="0 0 0 0 1 0 0 0 0 0.898039 0 0 0 0 0.709804 0 0 0 1 0"/>
<feBlend mode="normal" in2="BackgroundImageFix" result="effect1_dropShadow_1_33"/>
<feBlend mode="normal" in="SourceGraphic" in2="effect1_dropShadow_1_33" result="shape"/>
</filter>
<filter id="filter27_d_1_33" x="1659" y="209" width="96.2612" height="90.6001" filterUnits="userSpaceOnUse" color-interpolation-filters="sRGB">
<feFlood flood-opacity="0" result="BackgroundImageFix"/>
<feColorMatrix in="SourceAlpha" type="matrix" values="0 0 0 0 0 0 0 0 0 0 0 0 0 0 0 0 0 0 127 0" result="hardAlpha"/>
<feOffset/>
<feGaussianBlur stdDeviation="7.5"/>
<feComposite in2="hardAlpha" operator="out"/>
<feColorMatrix type="matrix" values="0 0 0 0 1 0 0 0 0 0.898039 0 0 0 0 0.709804 0 0 0 1 0"/>
<feBlend mode="normal" in2="BackgroundImageFix" result="effect1_dropShadow_1_33"/>
<feBlend mode="normal" in="SourceGraphic" in2="effect1_dropShadow_1_33" result="shape"/>
</filter>
<filter id="filter28_d_1_33" x="440" y="387" width="95.7899" height="90.6001" filterUnits="userSpaceOnUse" color-interpolation-filters="sRGB">
<feFlood flood-opacity="0" result="BackgroundImageFix"/>
<feColorMatrix in="SourceAlpha" type="matrix" values="0 0 0 0 0 0 0 0 0 0 0 0 0 0 0 0 0 0 127 0" result="hardAlpha"/>
<feOffset dy="4"/>
<feGaussianBlur stdDeviation="7.5"/>
<feComposite in2="hardAlpha" operator="out"/>
<feColorMatrix type="matrix" values="0 0 0 0 1 0 0 0 0 0.898039 0 0 0 0 0.709804 0 0 0 1 0"/>
<feBlend mode="normal" in2="BackgroundImageFix" result="effect1_dropShadow_1_33"/>
<feBlend mode="normal" in="SourceGraphic" in2="effect1_dropShadow_1_33" result="shape"/>
</filter>
</defs>
</svg>
